<?xml version="1.0" encoding="UTF-8" standalone="no"?>
<svg
   xmlns:dc="http://purl.org/dc/elements/1.1/"
   xmlns:cc="http://creativecommons.org/ns#"
   xmlns:rdf="http://www.w3.org/1999/02/22-rdf-syntax-ns#"
   xmlns:svg="http://www.w3.org/2000/svg"
   xmlns="http://www.w3.org/2000/svg"
   xmlns:sodipodi="http://sodipodi.sourceforge.net/DTD/sodipodi-0.dtd"
   xmlns:inkscape="http://www.inkscape.org/namespaces/inkscape"
   width="197.18155mm"
   height="43.65625mm"
   viewBox="0 0 197.18155 43.65625"
   version="1.1"
   id="svg3821"
   inkscape:version="0.92.4 (5da689c313, 2019-01-14)"
   sodipodi:docname="logo.svg"
   inkscape:export-filename="logo.png"
   inkscape:export-xdpi="96"
   inkscape:export-ydpi="96">
  <defs
     id="defs3815" />
  <sodipodi:namedview
     id="base"
     pagecolor="#ffffff"
     bordercolor="#666666"
     borderopacity="1.0"
     inkscape:pageopacity="0"
     inkscape:pageshadow="2"
     inkscape:zoom="1.2846945"
     inkscape:cx="382.10879"
     inkscape:cy="36.462059"
     inkscape:document-units="mm"
     inkscape:current-layer="g871"
     showgrid="false"
     inkscape:window-width="1817"
     inkscape:window-height="902"
     inkscape:window-x="91"
     inkscape:window-y="33"
     inkscape:window-maximized="1"
     inkscape:document-rotation="0" />
  <metadata
     id="metadata3818">
    <rdf:RDF>
      <cc:Work
         rdf:about="">
        <dc:format>image/svg+xml</dc:format>
        <dc:type
           rdf:resource="http://purl.org/dc/dcmitype/StillImage" />
        <dc:title />
        <cc:license
           rdf:resource="http://creativecommons.org/publicdomain/zero/1.0/" />
        <dc:date>2019/10/01</dc:date>
        <dc:creator>
          <cc:Agent>
            <dc:title>Sylvain Beorchia</dc:title>
          </cc:Agent>
        </dc:creator>
      </cc:Work>
      <cc:License
         rdf:about="http://creativecommons.org/publicdomain/zero/1.0/">
        <cc:permits
           rdf:resource="http://creativecommons.org/ns#Reproduction" />
        <cc:permits
           rdf:resource="http://creativecommons.org/ns#Distribution" />
        <cc:permits
           rdf:resource="http://creativecommons.org/ns#DerivativeWorks" />
      </cc:License>
    </rdf:RDF>
  </metadata>
  <g
     inkscape:label="Layer 1"
     inkscape:groupmode="layer"
     id="layer1"
     transform="translate(-17.575893,-18.998503)">
    <g
       id="g871"
       transform="translate(-21.965123,-2.4518183)"
       inkscape:export-xdpi="180.14684"
       inkscape:export-ydpi="180.14684">
      <g
         id="g842"
         transform="translate(-2.7809531,0.09448762)">
        <path
           style="opacity:1;fill:#2eb0d1;fill-opacity:1;stroke:none;stroke-width:0.76499999;stroke-linecap:round;stroke-linejoin:bevel;stroke-miterlimit:4;stroke-dasharray:none;stroke-dashoffset:0;stroke-opacity:1;paint-order:stroke fill markers"
           d="m 191.42879,28.055953 a 18.171912,15.127886 0 0 0 -18.1718,15.12826 18.171912,15.127886 0 0 0 18.1718,15.127797 18.171912,15.127886 0 0 0 18.17182,-15.127797 18.171912,15.127886 0 0 0 -18.17182,-15.12826 z m 0,5.304973 a 11.799942,9.8233022 0 0 1 11.79996,9.823287 11.799942,9.8233022 0 0 1 -11.79996,9.823301 11.799942,9.8233022 0 0 1 -11.79994,-9.823301 11.799942,9.8233022 0 0 1 11.79994,-9.823287 z"
           id="path1386-1-6-8"
           inkscape:connector-curvature="0" />
        <rect
           style="opacity:1;fill:#2eb0d1;fill-opacity:1;stroke:none;stroke-width:0.76499999;stroke-linecap:round;stroke-linejoin:bevel;stroke-miterlimit:4;stroke-dasharray:none;stroke-dashoffset:0;stroke-opacity:1;paint-order:stroke fill markers"
           id="rect1404-8-1-7"
           width="3.5399821"
           height="38.703815"
           x="194.19019"
           y="-29.812881"
           rx="2.064862"
           ry="2.064862"
           transform="rotate(15.768155)" />
      </g>
      <path
         inkscape:connector-curvature="0"
         id="path1948"
         d="m 55.007573,32.682465 c -1.151675,0.0054 -2.251495,0.103572 -3.219227,0.274812 -2.850814,0.503644 -3.368411,1.557816 -3.368411,3.501892 v 2.56753 h 6.736821 v 0.855842 h -6.736821 -2.528273 c -1.957906,0 -3.672309,1.176817 -4.20855,3.415522 -0.618548,2.56608 -0.645986,4.167352 0,6.84675 0.478874,1.994437 1.622502,3.415522 3.580408,3.415522 h 2.316273 v -3.077897 c 0,-2.223596 1.92391,-4.184994 4.208553,-4.184994 h 6.72897 c 1.873107,0 3.368413,-1.542257 3.368413,-3.423375 v -6.4149 c 0,-1.825717 -1.5402,-3.197187 -3.368413,-3.501892 -1.157285,-0.192645 -2.35807,-0.280164 -3.509743,-0.274812 z m -3.643222,2.065017 c 0.695865,0 1.264134,0.577551 1.264134,1.28769 -3e-6,0.707625 -0.568269,1.27984 -1.264134,1.27984 -0.698365,0 -1.264137,-0.572215 -1.264137,-1.27984 0,-0.710139 0.565772,-1.28769 1.264137,-1.28769 z"
         style="fill:#407daf;fill-opacity:1;stroke-width:0.25125679" />
      <path
         inkscape:connector-curvature="0"
         id="path1950"
         d="m 88.43657,32.602189 v 2.991525 c 0,2.319293 -1.966311,4.271365 -4.208552,4.271365 h -6.728973 c -1.843175,0 -3.368411,1.577514 -3.368411,3.423375 v 6.414899 c 0,1.825718 1.58759,2.899585 3.368411,3.423375 2.132499,0.627039 4.177456,0.74036 6.728973,0 1.696021,-0.491053 3.368413,-1.479301 3.36841,-3.423375 v -2.567529 h -6.72897 v -0.855843 h 6.72897 3.368413 c 1.957909,0 2.687508,-1.365684 3.368411,-3.415522 0.70335,-2.110277 0.673423,-4.13965 0,-6.84675 -0.483865,-1.949108 -1.408012,-3.41552 -3.368411,-3.41552 z m -3.784557,16.245322 c 0.698362,3e-6 1.264137,0.572217 1.264137,1.27984 0,0.710139 -0.565775,1.28769 -1.264137,1.28769 -0.695868,0 -1.264134,-0.577551 -1.264134,-1.28769 0,-0.707623 0.568266,-1.27984 1.264134,-1.27984 z"
         style="fill:#ffdf59;fill-opacity:0.99830975;stroke-width:0.25125679" />
      <path
         d="m 119.96073,32.866667 q 5.6396,0 7.85009,2.012117 2.2105,1.983777 2.2105,5.611257 0,2.493893 -0.87853,4.250954 -0.87853,1.728721 -3.08903,2.72061 -2.21049,0.963552 -6.09303,0.963552 h -5.89466 v 4.987784 h -6.97156 q 0.22671,-5.497898 0.22671,-10.287309 0,-4.789408 -0.22671,-10.287305 h 6.97156 v 0.02834 z m -1.98378,10.088928 q 2.35219,0 3.51412,-0.170037 1.19027,-0.19838 1.6437,-0.680154 0.48178,-0.481775 0.48178,-1.416984 0,-0.93521 -0.45344,-1.388645 -0.42509,-0.481774 -1.61536,-0.651814 -1.16193,-0.170037 -3.5708,-0.170037 h -3.91088 v 4.477671 z"
         style="font-style:normal;font-variant:normal;font-weight:normal;font-stretch:normal;font-size:40px;line-height:1.25;font-family:'Dela Gothic One';-inkscape-font-specification:'Dela Gothic One, Normal';font-variant-ligatures:normal;font-variant-caps:normal;font-variant-numeric:normal;font-feature-settings:normal;text-align:start;letter-spacing:0px;word-spacing:0px;writing-mode:lr-tb;text-anchor:start;fill:#d0633c;fill-opacity:1;stroke:none;stroke-width:0.70849234"
         id="path831"
         inkscape:connector-curvature="0" />
      <path
         d="m 165.023,39.696531 q 0,2.465552 -1.21861,4.165934 -1.19027,1.700382 -4.10925,2.465554 0.34007,0.453435 0.48177,0.708493 l 4.59103,6.376429 h -7.7084 q -1.24694,-2.323854 -3.93921,-6.574808 h -4.16594 v 6.574808 h -6.68817 q 0.22672,-5.497898 0.22672,-10.287309 0,-4.789408 -0.22672,-10.287305 h 6.68817 v 0.02834 h 5.80964 q 5.72462,0 7.99179,1.84208 2.26718,1.842076 2.26718,4.987784 z m -16.06861,-1.388647 v 3.230727 h 3.82586 q 2.40887,0 3.62748,-0.1417 1.24695,-0.170038 1.72872,-0.510114 0.48178,-0.340075 0.48178,-0.991889 0,-0.623472 -0.45344,-0.963549 -0.45343,-0.340077 -1.70038,-0.481774 -1.24695,-0.141701 -3.68416,-0.141701 z"
         style="font-style:normal;font-variant:normal;font-weight:normal;font-stretch:normal;font-size:40px;line-height:1.25;font-family:'Dela Gothic One';-inkscape-font-specification:'Dela Gothic One, Normal';font-variant-ligatures:normal;font-variant-caps:normal;font-variant-numeric:normal;font-feature-settings:normal;text-align:start;letter-spacing:0px;word-spacing:0px;writing-mode:lr-tb;text-anchor:start;fill:#d0633c;fill-opacity:1;stroke:none;stroke-width:0.70849234"
         id="path833"
         inkscape:connector-curvature="0" />
      <path
         d="m 235.05473,32.809987 v 10.00391 q 0,5.299522 -2.74896,8.105151 -2.72061,2.777291 -8.6436,2.777291 -3.40077,0 -6.29141,-0.991888 -2.86231,-0.991892 -5.10115,-2.578913 0.53846,-1.75706 0.87853,-3.372424 0.34008,-1.615363 0.51012,-3.542461 2.91899,2.352194 5.38454,3.259063 2.46555,0.90687 4.70439,0.90687 2.32385,0 3.31574,-1.048567 0.99189,-1.04857 1.02023,-3.59914 v -2.153817 q 0,-4.591032 -0.25506,-7.765075 z"
         style="font-style:normal;font-variant:normal;font-weight:normal;font-stretch:normal;font-size:40px;line-height:1.25;font-family:'Dela Gothic One';-inkscape-font-specification:'Dela Gothic One, Normal';font-variant-ligatures:normal;font-variant-caps:normal;font-variant-numeric:normal;font-feature-settings:normal;text-align:start;letter-spacing:0px;word-spacing:0px;writing-mode:lr-tb;text-anchor:start;fill:#d0633c;fill-opacity:1;stroke:none;stroke-width:0.70849234"
         id="path837"
         inkscape:connector-curvature="0" />
    </g>
  </g>
</svg>
