<?xml version="1.0" encoding="UTF-8" standalone="no"?>
<svg
   xmlns:dc="http://purl.org/dc/elements/1.1/"
   xmlns:cc="http://creativecommons.org/ns#"
   xmlns:rdf="http://www.w3.org/1999/02/22-rdf-syntax-ns#"
   xmlns:svg="http://www.w3.org/2000/svg"
   xmlns="http://www.w3.org/2000/svg"
   xmlns:sodipodi="http://sodipodi.sourceforge.net/DTD/sodipodi-0.dtd"
   xmlns:inkscape="http://www.inkscape.org/namespaces/inkscape"
   width="197.18155mm"
   height="43.65625mm"
   viewBox="0 0 197.18155 43.65625"
   version="1.1"
   id="svg3821"
   inkscape:version="0.92.4 (5da689c313, 2019-01-14)"
   sodipodi:docname="logo.svg"
   inkscape:export-filename="logo.png"
   inkscape:export-xdpi="96"
   inkscape:export-ydpi="96">
  <defs
     id="defs3815" />
  <sodipodi:namedview
     id="base"
     pagecolor="#ffffff"
     bordercolor="#666666"
     borderopacity="1.0"
     inkscape:pageopacity="0"
     inkscape:pageshadow="2"
     inkscape:zoom="1.8168324"
     inkscape:cx="372.62655"
     inkscape:cy="82.5"
     inkscape:document-units="mm"
     inkscape:current-layer="g199"
     showgrid="false"
     inkscape:window-width="1817"
     inkscape:window-height="902"
     inkscape:window-x="91"
     inkscape:window-y="33"
     inkscape:window-maximized="0"
     inkscape:document-rotation="0" />
  <metadata
     id="metadata3818">
    <rdf:RDF>
      <cc:Work
         rdf:about="">
        <dc:format>image/svg+xml</dc:format>
        <dc:type
           rdf:resource="http://purl.org/dc/dcmitype/StillImage" />
        <dc:title />
        <cc:license
           rdf:resource="http://creativecommons.org/publicdomain/zero/1.0/" />
        <dc:date>2019/10/01</dc:date>
        <dc:creator>
          <cc:Agent>
            <dc:title>Sylvain Beorchia</dc:title>
          </cc:Agent>
        </dc:creator>
      </cc:Work>
      <cc:License
         rdf:about="http://creativecommons.org/publicdomain/zero/1.0/">
        <cc:permits
           rdf:resource="http://creativecommons.org/ns#Reproduction" />
        <cc:permits
           rdf:resource="http://creativecommons.org/ns#Distribution" />
        <cc:permits
           rdf:resource="http://creativecommons.org/ns#DerivativeWorks" />
      </cc:License>
    </rdf:RDF>
  </metadata>
  <g
     inkscape:label="Layer 1"
     inkscape:groupmode="layer"
     id="layer1"
     transform="translate(-17.575893,-18.998503)">
    <g
       id="g871"
       transform="translate(-21.965123,-2.4518183)"
       inkscape:export-xdpi="180.14684"
       inkscape:export-ydpi="180.14684">
      <path
         inkscape:connector-curvature="0"
         id="path1386-1-6-8"
         d="m 192.30256,28.055953 a 18.171912,15.127886 0 0 0 -18.1718,15.12826 18.171912,15.127886 0 0 0 18.1718,15.127797 18.171912,15.127886 0 0 0 18.17182,-15.127797 18.171912,15.127886 0 0 0 -18.17182,-15.12826 z m 0,5.304973 a 11.799942,9.8233022 0 0 1 11.79996,9.823287 11.799942,9.8233022 0 0 1 -11.79996,9.823301 11.799942,9.8233022 0 0 1 -11.79994,-9.823301 11.799942,9.8233022 0 0 1 11.79994,-9.823287 z"
         style="opacity:1;fill:#2eb0d1;fill-opacity:1;stroke:none;stroke-width:0.765;stroke-linecap:round;stroke-linejoin:bevel;stroke-miterlimit:4;stroke-dasharray:none;stroke-dashoffset:0;stroke-opacity:1;paint-order:stroke fill markers" />
      <rect
         transform="rotate(15.768155)"
         ry="2.064862"
         rx="2.064862"
         y="-30.050325"
         x="195.03108"
         height="38.703815"
         width="3.5399821"
         id="rect1404-8-1-7"
         style="opacity:1;fill:#2eb0d1;fill-opacity:1;stroke:none;stroke-width:0.765;stroke-linecap:round;stroke-linejoin:bevel;stroke-miterlimit:4;stroke-dasharray:none;stroke-dashoffset:0;stroke-opacity:1;paint-order:stroke fill markers" />
      <path
         d="m 109.59103,32.500713 h 8.77889 q 3.05042,0 4.84057,1.761508 1.79015,1.761508 1.79015,4.496858 0,2.74967 -1.77583,4.496857 -1.76151,1.747186 -4.85489,1.732865 h -6.80257 v 8.564079 h -1.97632 z m 1.97632,1.976326 v 8.535436 h 6.80257 q 2.17683,0.01432 3.40845,-1.174338 1.24594,-1.202981 1.24594,-3.050416 0,-1.861756 -1.26026,-3.09338 -1.26027,-1.231623 -3.39413,-1.217302 z"
         style="font-style:normal;font-variant:normal;font-weight:normal;font-stretch:normal;font-size:29.3298px;line-height:0;font-family:AnjaliOldLipi;-inkscape-font-specification:'AnjaliOldLipi, Normal';font-variant-ligatures:normal;font-variant-caps:normal;font-variant-numeric:normal;font-feature-settings:normal;text-align:start;letter-spacing:0px;word-spacing:0px;writing-mode:lr-tb;text-anchor:start;fill:#d0633c;fill-opacity:1;stroke:none;stroke-width:0.264583"
         id="path856"
         inkscape:connector-curvature="0" />
      <path
         d="m 145.39403,32.500713 h 8.77889 q 3.07906,0 4.85489,1.632617 1.77583,1.632617 1.77583,4.339324 0,1.947684 -0.91656,3.322519 -0.91655,1.360514 -2.67806,2.004968 2.07657,1.503727 3.19363,4.310682 0.31506,0.816309 0.85927,2.334356 0.5442,1.503726 1.04545,2.448925 l -1.74719,0.9452 q -0.63013,-1.160018 -1.17434,-2.73535 -0.52988,-1.575332 -0.93088,-2.477568 -1.2889,-3.079058 -4.5255,-4.353645 h -6.55911 v 9.280139 h -1.97632 z m 1.97632,1.976326 v 7.819376 h 6.80257 q 2.26275,0 3.45141,-1.002484 1.20298,-1.002484 1.20298,-2.806955 0,-1.818793 -1.24594,-2.921525 -1.24594,-1.102733 -3.40845,-1.088412 z"
         style="font-style:normal;font-variant:normal;font-weight:normal;font-stretch:normal;font-size:29.3298px;line-height:0;font-family:AnjaliOldLipi;-inkscape-font-specification:'AnjaliOldLipi, Normal';font-variant-ligatures:normal;font-variant-caps:normal;font-variant-numeric:normal;font-feature-settings:normal;text-align:start;letter-spacing:0px;word-spacing:0px;writing-mode:lr-tb;text-anchor:start;fill:#d0633c;fill-opacity:1;stroke:none;stroke-width:0.264583"
         id="path858"
         inkscape:connector-curvature="0" />
      <path
         d="m 224.06039,47.552296 q 0,2.849919 1.70422,3.909688 0.64446,0.400994 1.63262,0.400994 1.83311,0 2.82128,-1.389157 0.81631,-1.131375 0.81631,-2.592137 V 32.500713 h 1.97632 v 15.380971 q 0,2.191144 -1.26026,3.881045 -1.54669,2.090896 -4.35365,2.076575 -3.69487,0 -4.86921,-3.394125 -0.44396,-1.274587 -0.44396,-2.892883 z"
         style="font-style:normal;font-variant:normal;font-weight:normal;font-stretch:normal;font-size:29.3298px;line-height:0;font-family:AnjaliOldLipi;-inkscape-font-specification:'AnjaliOldLipi, Normal';font-variant-ligatures:normal;font-variant-caps:normal;font-variant-numeric:normal;font-feature-settings:normal;text-align:start;letter-spacing:0px;word-spacing:0px;writing-mode:lr-tb;text-anchor:start;fill:#d0633c;fill-opacity:1;stroke:none;stroke-width:0.264583"
         id="path860"
         inkscape:connector-curvature="0" />
      <g
         id="g199"
         transform="matrix(0.26458333,0,0,0.26458333,50.569679,6.8205101)">
        <path
           style="fill:#407daf;fill-opacity:1;stroke-width:0.949632"
           d="m 19.787374,97.388852 c -4.35279,0.02023 -8.50959,0.391455 -12.16716,1.03866 -10.77473,1.903538 -12.731,5.887808 -12.731,13.235498 v 9.70405 h 25.462 v 3.23468 h -25.462 -9.55568 c -7.39996,0 -13.87959,4.44781 -15.90633,12.90906 -2.33782,9.69857 -2.44152,15.75062 0,25.87748 1.80992,7.53803 6.13229,12.90906 13.53225,12.90906 h 8.75442 v -11.633 c 0,-8.40414 7.27147,-15.8173 15.90634,-15.8173 h 25.43233 c 7.07946,0 12.73101,-5.829 12.73101,-12.93874 v -24.24529 c 0,-6.90035 -5.82123,-12.083858 -12.73101,-13.235498 -4.37399,-0.728107 -8.91239,-1.058886 -13.26517,-1.03866 z m -13.76966,7.804788 c 2.63004,0 4.77783,2.18287 4.77783,4.86686 -10e-6,2.67449 -2.14779,4.83719 -4.77783,4.83719 -2.63949,0 -4.77784,-2.1627 -4.77784,-4.83719 0,-2.68399 2.13835,-4.86686 4.77784,-4.86686 z"
           id="path1948" />
        <path
           style="fill:#ffdf59;fill-opacity:0.99830973;stroke-width:0.949632"
           d="M 141.03719,97.085447 V 108.392 c 0,8.76583 -7.43173,16.14374 -15.90634,16.14374 H 99.698514 c -6.96633,0 -12.731,5.96226 -12.731,12.93874 v 24.24529 c 0,6.90035 6.00034,10.95906 12.731,12.93874 8.059836,2.36991 15.788806,2.79821 25.432336,0 6.41016,-1.85595 12.73101,-5.59106 12.731,-12.93874 v -9.70405 h -25.43233 v -3.23468 h 25.43233 12.73101 c 7.39997,0 10.15751,-5.16164 12.731,-12.90906 2.65833,-7.97585 2.54522,-15.64592 0,-25.87748 -1.82878,-7.36671 -5.32162,-12.909053 -12.731,-12.909053 z m -14.30384,61.399643 c 2.63948,10e-6 4.77784,2.16271 4.77784,4.83719 0,2.68399 -2.13836,4.86686 -4.77784,4.86686 -2.63005,0 -4.77783,-2.18287 -4.77783,-4.86686 0,-2.67448 2.14778,-4.83719 4.77783,-4.83719 z"
           id="path1950" />
      </g>
    </g>
  </g>
</svg>
